<svg width="100%" height="200" viewBox="0 0 400 200" fill="none" xmlns="http://www.w3.org/2000/svg">
<g id="Balanca">
<path id="Polygon 1" d="M141.065 198.545L199.5 97.3333L257.935 198.545H141.065Z" fill="#60BF8F" stroke="#737373" stroke-width="2"/>
<g id="Platform">
<rect id="Rectangle 9" x="20" y="118.4" width="58.1667" height="10.0333" transform="rotate(-90 20 118.4)" fill="#EAEAEA" stroke="#737373" stroke-width="2"/>
<rect id="Rectangle 10" x="368.967" y="118.4" width="58.1667" height="10.0333" transform="rotate(-90 368.967 118.4)" fill="#EAEAEA" stroke="#737373" stroke-width="2"/>
<rect id="Rectangle 8" x="20" y="102.35" width="359" height="16.05" fill="#EAEAEA" stroke="#737373" stroke-width="2"/>
<g id="triangle-3kg" class="object">
<path id="Polygon 2" d="M37.7321 98.5347L61 58.2334L84.2679 98.5347H37.7321Z" fill="#60BF8F" stroke="#737373" stroke-width="2"/>
<path id="3" d="M60.788 91.4494C59.912 91.4494 59.042 91.3354 58.178 91.1074C57.314 90.8674 56.582 90.5314 55.982 90.0994L57.116 87.8674C57.596 88.2154 58.154 88.4914 58.79 88.6954C59.426 88.8994 60.068 89.0014 60.716 89.0014C61.448 89.0014 62.024 88.8574 62.444 88.5694C62.864 88.2814 63.074 87.8854 63.074 87.3814C63.074 86.9014 62.888 86.5234 62.516 86.2474C62.144 85.9714 61.544 85.8334 60.716 85.8334H59.384V83.9074L62.894 79.9294L63.218 80.9734H56.612V78.6334H65.432V80.5234L61.94 84.5014L60.464 83.6554H61.31C62.858 83.6554 64.028 84.0034 64.82 84.6994C65.612 85.3954 66.008 86.2894 66.008 87.3814C66.008 88.0894 65.822 88.7554 65.45 89.3794C65.078 89.9914 64.508 90.4894 63.74 90.8734C62.972 91.2574 61.988 91.4494 60.788 91.4494Z" fill="white"/>
</g>
<g id="square-7kg" class="object">
<rect id="Rectangle 11" x="316" y="50.2334" width="48" height="48" fill="#60BF8F" stroke="#737373" stroke-width="2"/>
<path id="7" d="M336.718 82.2334L341.794 70.7494L342.55 72.0094H335.764L337.06 70.6414V74.0614H334.468V69.6334H344.566V71.5234L339.886 82.2334H336.718Z" fill="white"/>
</g>
<g id="square-unknown-1" class="object">
<rect id="Rectangle 11_2" x="95.2163" y="60.2334" width="41" height="39" fill="#47C5BE" stroke="#737373" stroke-width="2"/>
<path id="1" d="M112.862 84.2334V72.7134L114.122 73.9734H110.342V71.6334H115.778V84.2334H112.862Z" fill="white"/>
</g>
<g id="square-unknown-2" class="object">
<rect id="Rectangle 11_3" x="95.2163" y="60.2334" width="41" height="39" fill="#47C5BE" stroke="#737373" stroke-width="2"/>
<path id="2" d="M110.81 84.2334V82.3434L115.67 77.7534C116.054 77.4054 116.336 77.0934 116.516 76.8174C116.696 76.5414 116.816 76.2894 116.876 76.0614C116.948 75.8334 116.984 75.6234 116.984 75.4314C116.984 74.9274 116.81 74.5434 116.462 74.2794C116.126 74.0034 115.628 73.8654 114.968 73.8654C114.44 73.8654 113.948 73.9674 113.492 74.1714C113.048 74.3754 112.67 74.6934 112.358 75.1254L110.234 73.7574C110.714 73.0374 111.386 72.4674 112.25 72.0474C113.114 71.6274 114.11 71.4174 115.238 71.4174C116.174 71.4174 116.99 71.5734 117.686 71.8854C118.394 72.1854 118.94 72.6114 119.324 73.1634C119.72 73.7154 119.918 74.3754 119.918 75.1434C119.918 75.5514 119.864 75.9594 119.756 76.3674C119.66 76.7634 119.456 77.1834 119.144 77.6274C118.844 78.0714 118.4 78.5694 117.812 79.1214L113.78 82.9194L113.222 81.8574H120.332V84.2334H110.81Z" fill="white"/>
</g>
<g id="square-unknown-4" class="object">
<rect id="Rectangle 11_4" x="95.2163" y="60.2334" width="41" height="39" fill="#47C5BE" stroke="#737373" stroke-width="2"/>
<path id="4" d="M110.774 81.5874V79.6254L116.714 71.6334H119.774L113.96 79.6254L112.538 79.2114H122.456V81.5874H110.774ZM117.56 84.2334V81.5874L117.65 79.2114V76.8534H120.404V84.2334H117.56Z" fill="white"/>
</g>
<g id="square-unknown-6" class="object">
<rect id="Rectangle 11_5" x="95.2163" y="60.2334" width="41" height="39" fill="#47C5BE" stroke="#737373" stroke-width="2"/>
<path id="6" d="M116.552 84.4494C115.4 84.4494 114.398 84.2094 113.546 83.7294C112.706 83.2494 112.058 82.5474 111.602 81.6234C111.146 80.6994 110.918 79.5594 110.918 78.2034C110.918 76.7514 111.188 75.5214 111.728 74.5134C112.28 73.5054 113.036 72.7374 113.996 72.2094C114.968 71.6814 116.084 71.4174 117.344 71.4174C118.016 71.4174 118.658 71.4894 119.27 71.6334C119.882 71.7774 120.41 71.9934 120.854 72.2814L119.774 74.4234C119.426 74.1834 119.054 74.0214 118.658 73.9374C118.262 73.8414 117.848 73.7934 117.416 73.7934C116.324 73.7934 115.46 74.1234 114.824 74.7834C114.188 75.4434 113.87 76.4214 113.87 77.7174C113.87 77.9334 113.87 78.1734 113.87 78.4374C113.882 78.7014 113.918 78.9654 113.978 79.2294L113.168 78.4734C113.396 78.0054 113.69 77.6154 114.05 77.3034C114.41 76.9794 114.836 76.7394 115.328 76.5834C115.832 76.4154 116.384 76.3314 116.984 76.3314C117.8 76.3314 118.532 76.4934 119.18 76.8174C119.828 77.1414 120.344 77.5974 120.728 78.1854C121.124 78.7734 121.322 79.4634 121.322 80.2554C121.322 81.1074 121.106 81.8514 120.674 82.4874C120.254 83.1114 119.684 83.5974 118.964 83.9454C118.256 84.2814 117.452 84.4494 116.552 84.4494ZM116.39 82.2714C116.798 82.2714 117.158 82.1994 117.47 82.0554C117.794 81.8994 118.046 81.6774 118.226 81.3894C118.406 81.1014 118.496 80.7714 118.496 80.3994C118.496 79.8234 118.298 79.3674 117.902 79.0314C117.518 78.6834 117.002 78.5094 116.354 78.5094C115.922 78.5094 115.544 78.5934 115.22 78.7614C114.896 78.9174 114.638 79.1394 114.446 79.4274C114.266 79.7034 114.176 80.0274 114.176 80.3994C114.176 80.7594 114.266 81.0834 114.446 81.3714C114.626 81.6474 114.878 81.8694 115.202 82.0374C115.526 82.1934 115.922 82.2714 116.39 82.2714Z" fill="white"/>
</g>
<g id="square-unknown-x" class="object">
<rect id="Rectangle 11_6" x="95.2163" y="60.2334" width="41" height="39" fill="#47C5BE" stroke="#737373" stroke-width="2"/>
<path id="x" d="M110.288 84.2334L114.626 78.5454L114.572 80.0934L110.414 74.5494H113.564L116.192 78.1674L115.004 78.2034L117.722 74.5494H120.71L116.534 80.0394V78.5274L120.854 84.2334H117.668L114.914 80.3814L116.084 80.5434L113.348 84.2334H110.288Z" fill="white"/>
</g>
</g>
<circle id="Ellipse 1" cx="199.5" cy="110.976" r="6.01667" fill="#4AA979"/>
</g>
</svg>
