<svg width="50" height="44" viewBox="0 0 50 44" fill="none" xmlns="http://www.w3.org/2000/svg">
<path d="M1.73205 42.8013L25 2.5L48.268 42.8013H1.73205Z" fill="#60BF8F" stroke="#737373" stroke-width="2"/>
<path d="M24.788 35.716C23.912 35.716 23.042 35.602 22.178 35.374C21.314 35.134 20.582 34.798 19.982 34.366L21.116 32.134C21.596 32.482 22.154 32.758 22.79 32.962C23.426 33.166 24.068 33.268 24.716 33.268C25.448 33.268 26.024 33.124 26.444 32.836C26.864 32.548 27.074 32.152 27.074 31.648C27.074 31.168 26.888 30.79 26.516 30.514C26.144 30.238 25.544 30.1 24.716 30.1H23.384V28.174L26.894 24.196L27.218 25.24H20.612V22.9H29.432V24.79L25.94 28.768L24.464 27.922H25.31C26.858 27.922 28.028 28.27 28.82 28.966C29.612 29.662 30.008 30.556 30.008 31.648C30.008 32.356 29.822 33.022 29.45 33.646C29.078 34.258 28.508 34.756 27.74 35.14C26.972 35.524 25.988 35.716 24.788 35.716Z" fill="white"/>
</svg>
