<svg width="15" height="16" viewBox="0 0 15 16" fill="none" xmlns="http://www.w3.org/2000/svg">
<path d="M8 10.0029L5 10.5429L5.5 7.50287L11.23 1.79287C11.323 1.69914 11.4336 1.62475 11.5554 1.57398C11.6773 1.52321 11.808 1.49707 11.94 1.49707C12.072 1.49707 12.2027 1.52321 12.3246 1.57398C12.4464 1.62475 12.557 1.69914 12.65 1.79287L13.71 2.85287C13.8037 2.94583 13.8781 3.05643 13.9289 3.17829C13.9797 3.30015 14.0058 3.43086 14.0058 3.56287C14.0058 3.69488 13.9797 3.82559 13.9289 3.94745C13.8781 4.0693 13.8037 4.17991 13.71 4.27287L8 10.0029Z" stroke="var(--normal-text-color)" stroke-width="1.5" stroke-linecap="round" stroke-linejoin="round"/>
<path d="M12.5 10.5029V13.5029C12.5 13.7681 12.3946 14.0225 12.2071 14.21C12.0196 14.3976 11.7652 14.5029 11.5 14.5029H2C1.73478 14.5029 1.48043 14.3976 1.29289 14.21C1.10536 14.0225 1 13.7681 1 13.5029V4.00293C1 3.73771 1.10536 3.48336 1.29289 3.29582C1.48043 3.10829 1.73478 3.00293 2 3.00293H5" stroke="var(--normal-text-color)" stroke-width="1.5" stroke-linecap="round" stroke-linejoin="round"/>
</svg>
