<svg width="73" height="128" viewBox="0 0 73 128" fill="none" xmlns="http://www.w3.org/2000/svg">
<path d="M24.7481 70.7642C24.7481 68.7986 25.3868 67.1798 26.6642 65.9079C28.0578 64.5203 29.7417 63.8266 31.7159 63.8266C36.8256 63.5953 41.4127 62.4968 45.4772 60.5312C49.5418 58.4499 52.7354 55.5592 55.0579 51.8591C57.4967 48.0434 58.716 43.5339 58.716 38.3306C58.716 33.4743 57.6128 29.196 55.4063 25.4959C53.316 21.7958 50.4128 18.9051 46.6966 16.8238C43.0966 14.7425 39.032 13.7019 34.503 13.7019C30.2062 13.7019 26.1997 14.6269 22.4836 16.477C18.7674 18.327 15.5738 20.7552 12.9028 23.7615C11.6254 25.0334 10.1157 25.9006 8.37379 26.3631C6.74797 26.8257 5.06409 26.4788 3.32214 25.3225C1.34793 23.935 0.244702 22.3162 0.0124425 20.4661C-0.103687 18.5005 0.593091 16.7082 2.10278 15.0894C5.93506 10.4643 10.6964 6.82204 16.3867 4.1626C22.0771 1.38753 28.1158 0 34.503 0C41.5869 0 48.0321 1.61879 53.8386 4.85637C59.6451 8.09395 64.2903 12.6034 67.7742 18.3848C71.258 24.0506 73 30.6992 73 38.3306C73 43.4182 72.071 48.1012 70.2129 52.3794C68.4709 56.6576 65.9741 60.4734 62.7225 63.8266C59.4709 67.0641 55.6967 69.6658 51.3999 71.6314C47.1031 73.5971 42.4579 74.8112 37.4643 75.2737C37.1159 75.2737 37.1159 75.2737 37.4643 75.2737C37.8127 75.1581 38.1611 74.9846 38.5095 74.7534V88.9756C38.5095 90.9413 37.8707 92.6179 36.5933 94.0054C35.3159 95.393 33.6901 96.0867 31.7159 96.0867C29.6255 96.0867 27.9417 95.393 26.6642 94.0054C25.3868 92.6179 24.7481 90.9413 24.7481 88.9756V70.7642ZM31.3675 128C28.9288 128 27.0707 127.306 25.7932 125.919C24.5158 124.416 23.8771 122.45 23.8771 120.022V116.553C23.8771 114.125 24.5158 112.217 25.7932 110.829C27.0707 109.442 28.9288 108.748 31.3675 108.748H32.9352C35.374 108.748 37.232 109.442 38.5095 110.829C39.7869 112.217 40.4256 114.125 40.4256 116.553V120.022C40.4256 122.45 39.7869 124.416 38.5095 125.919C37.232 127.306 35.374 128 32.9352 128H31.3675Z" fill="#DEDEDE"/>
</svg>
