<svg width="24" height="24" viewBox="0 0 24 24" fill="none" xmlns="http://www.w3.org/2000/svg">
<g clip-path="url(#clip0_2117_6322)">
<path d="M21.4289 0.857178H2.57171C1.62493 0.857178 0.857422 1.62469 0.857422 2.57146V21.4286C0.857422 22.3754 1.62493 23.1429 2.57171 23.1429H21.4289C22.3757 23.1429 23.1431 22.3754 23.1431 21.4286V2.57146C23.1431 1.62469 22.3757 0.857178 21.4289 0.857178Z" fill="#42A09B"/>
<path d="M21.4289 0.857178H2.57171C1.62493 0.857178 0.857422 1.62469 0.857422 2.57146V21.4286C0.857422 22.3754 1.62493 23.1429 2.57171 23.1429H21.4289C22.3757 23.1429 23.1431 22.3754 23.1431 21.4286V2.57146C23.1431 1.62469 22.3757 0.857178 21.4289 0.857178Z" stroke="#26807C" stroke-width="1.71429" stroke-linecap="round" stroke-linejoin="round"/>
<path d="M5.14258 12.0001L7.71401 14.5715L11.9997 8.57153" stroke="white" stroke-width="1.71429" stroke-linecap="round" stroke-linejoin="round"/>
<path d="M13.7139 12.8572H18.8567" stroke="white" stroke-width="1.71429" stroke-linecap="round" stroke-linejoin="round"/>
</g>
<defs>
<clipPath id="clip0_2117_6322">
<rect width="24" height="24" fill="white"/>
</clipPath>
</defs>
</svg>
