<svg width="24" height="24" viewBox="0 0 24 24" fill="none" xmlns="http://www.w3.org/2000/svg">
<g clip-path="url(#clip0_2117_6328)">
<path d="M11.9999 23.1428C17.2072 23.1428 21.4284 18.9215 21.4284 13.7142C21.4284 8.50695 17.2072 4.28564 11.9999 4.28564C6.7926 4.28564 2.57129 8.50695 2.57129 13.7142C2.57129 18.9215 6.7926 23.1428 11.9999 23.1428Z" fill="#42A09B"/>
<path d="M11.9999 23.1428C17.2072 23.1428 21.4284 18.9215 21.4284 13.7142C21.4284 8.50695 17.2072 4.28564 11.9999 4.28564C6.7926 4.28564 2.57129 8.50695 2.57129 13.7142C2.57129 18.9215 6.7926 23.1428 11.9999 23.1428Z" stroke="#26807C" stroke-width="1.71429" stroke-linecap="round" stroke-linejoin="round"/>
<path d="M9.42871 0.857178H14.5716" stroke="#26807C" stroke-width="1.71429" stroke-linecap="round" stroke-linejoin="round"/>
<path d="M12 0.857178V4.28575" stroke="#26807C" stroke-width="1.71429" stroke-linecap="round" stroke-linejoin="round"/>
<path d="M9.42871 10.2856L12.0001 13.7142H16.2859" stroke="white" stroke-width="1.71429" stroke-linecap="round" stroke-linejoin="round"/>
<path d="M20.5713 3.42847L22.2856 5.14275" stroke="#26807C" stroke-width="1.71429" stroke-linecap="round" stroke-linejoin="round"/>
<path d="M3.42815 3.42847L1.71387 5.14275" stroke="#26807C" stroke-width="1.71429" stroke-linecap="round" stroke-linejoin="round"/>
</g>
<defs>
<clipPath id="clip0_2117_6328">
<rect width="24" height="24" fill="white"/>
</clipPath>
</defs>
</svg>
