<svg width="33" height="32" viewBox="0 0 33 32" fill="none" xmlns="http://www.w3.org/2000/svg">
<path d="M23.3184 24.6904L17.2829 30L15.9009 22.0605L22.5876 3.16911C22.6612 2.9516 22.7774 2.75107 22.9293 2.5793C23.0812 2.40752 23.2657 2.26797 23.472 2.16883C23.6783 2.06969 23.9022 2.01296 24.1306 2.00197C24.359 1.99099 24.5873 2.02596 24.8021 2.10485L28.8616 3.55716C29.0757 3.63205 29.2728 3.74877 29.4417 3.9006C29.6106 4.05242 29.7479 4.23634 29.8456 4.44174C29.9434 4.64715 29.9998 4.86997 30.0114 5.09737C30.023 5.32476 29.9898 5.55222 29.9135 5.76662L23.3184 24.6904Z" stroke="#333333" stroke-width="1.8" stroke-linecap="round" stroke-linejoin="round"/>
<path d="M2.0127 2C3.38952 2.5923 4.6702 4.81179 4.9512 7.4317C4.61454 10.1854 2.96388 16.0232 2.65671 18.7997C2.28115 22.1944 3.85302 24.3947 5.25327 25.7218C7.56593 27.9136 12.4544 29.4428 14.975 29.4428" stroke="#BF6060" stroke-width="2" stroke-linecap="round"/>
</svg>
