<svg width="24" height="24" viewBox="0 0 24 24" fill="none" xmlns="http://www.w3.org/2000/svg">
<path d="M6 23.1431H23.1429" stroke="#333333" stroke-width="1.71429" stroke-linecap="round" stroke-linejoin="round"/>
<path d="M21.1201 10.6458C21.2751 10.4956 21.3983 10.3157 21.4825 10.117C21.5667 9.91818 21.61 9.70452 21.61 9.48866C21.61 9.2728 21.5667 9.05914 21.4825 8.86037C21.3983 8.66159 21.2751 8.48175 21.1201 8.33152L14.1429 1.33723C13.826 1.04324 13.4096 0.879883 12.9772 0.879883C12.5449 0.879883 12.1285 1.04324 11.8115 1.33723L1.33723 11.8115C1.04324 12.1285 0.879883 12.5449 0.879883 12.9772C0.879883 13.4096 1.04324 13.826 1.33723 14.1429L5.52009 18.3087C5.66748 18.4655 5.84542 18.5905 6.04295 18.676C6.24048 18.7615 6.45342 18.8057 6.66866 18.8058H12.2915C12.5096 18.8081 12.7259 18.765 12.9265 18.6795C13.1272 18.5939 13.3079 18.4676 13.4572 18.3087L21.1201 10.6458Z" stroke="#333333" stroke-width="1.71429" stroke-linecap="round" stroke-linejoin="round"/>
</svg>
