<svg width="15" height="128" viewBox="0 0 15 128" fill="none" xmlns="http://www.w3.org/2000/svg">
<path d="M7.13367 91.9751C4.81675 91.9751 3.53635 90.6977 3.29246 88.1428L1.2804 7.48233C1.2804 5.29245 1.7072 3.52838 2.5608 2.19013C3.41441 0.730205 4.93869 0.000244141 7.13367 0.000244141C9.2067 0.000244141 10.67 0.730205 11.5236 2.19013C12.4992 3.52838 12.926 5.29245 12.804 7.48233L10.792 88.1428C10.67 90.6977 9.45059 91.9751 7.13367 91.9751ZM6.58493 127.743C4.51189 127.743 2.86566 127.135 1.64623 125.918C0.548744 124.58 0 122.877 0 120.809V116.794C0 114.604 0.548744 112.901 1.64623 111.684C2.86566 110.467 4.51189 109.859 6.58493 109.859H7.68241C9.87739 109.859 11.4626 110.467 12.4382 111.684C13.5357 112.901 14.0844 114.604 14.0844 116.794V120.809C14.0844 122.877 13.5357 124.58 12.4382 125.918C11.4626 127.135 9.87739 127.743 7.68241 127.743H6.58493Z" fill="#DEDEDE"/>
</svg>
