<svg width="17" height="18" viewBox="0 0 17 18" fill="none" xmlns="http://www.w3.org/2000/svg">
<path d="M8.42843 10.1967C10.0064 10.1967 11.2856 8.91752 11.2856 7.33956C11.2856 5.76161 10.0064 4.48242 8.42843 4.48242C6.85048 4.48242 5.57129 5.76161 5.57129 7.33956C5.57129 8.91752 6.85048 10.1967 8.42843 10.1967Z" stroke="#737373" stroke-width="1.6" stroke-linecap="round" stroke-linejoin="round"/>
<path d="M3.54834 14.6538C4.05833 13.8167 4.77509 13.1248 5.62972 12.6447C6.48435 12.1646 7.4481 11.9125 8.42834 11.9125C9.40858 11.9125 10.3723 12.1646 11.227 12.6447C12.0816 13.1248 12.7984 13.8167 13.3083 14.6538" stroke="#737373" stroke-width="1.6" stroke-linecap="round" stroke-linejoin="round"/>
<path d="M8.42857 16.4824C12.5313 16.4824 15.8571 13.1565 15.8571 9.05382C15.8571 4.95113 12.5313 1.62524 8.42857 1.62524C4.32588 1.62524 1 4.95113 1 9.05382C1 13.1565 4.32588 16.4824 8.42857 16.4824Z" stroke="#737373" stroke-width="1.6" stroke-linecap="round" stroke-linejoin="round"/>
</svg>
