<svg width="14" height="17" viewBox="0 0 14 17" fill="none" xmlns="http://www.w3.org/2000/svg">
<path d="M10.8702 7.43429C11.4427 7.54827 11.9499 7.87696 12.2878 8.35298C12.6257 8.82899 12.7686 9.41623 12.6874 9.99429L11.9902 14.8743C11.9514 15.1489 11.8141 15.4 11.6038 15.5808C11.3935 15.7617 11.1247 15.8599 10.8474 15.8571H3.44164C3.21275 15.8574 2.98907 15.7889 2.79957 15.6605C2.61007 15.5321 2.46348 15.3498 2.37879 15.1371L1.15593 12.0971C0.946619 11.5599 0.948081 10.9634 1.16002 10.4272C1.37196 9.89097 1.77873 9.45467 2.29879 9.20571L3.84164 8.42857V2.71429C3.84164 2.25963 4.02226 1.82359 4.34375 1.5021C4.66524 1.18061 5.10127 1 5.55593 1C6.01059 1 6.44662 1.18061 6.76811 1.5021C7.0896 1.82359 7.27022 2.25963 7.27022 2.71429V6.71429L10.8702 7.43429Z" stroke="var(--normal-text-color)" stroke-width="1.5" stroke-linecap="round" stroke-linejoin="round"/>
</svg>
