<svg xmlns="http://www.w3.org/2000/svg" viewBox="0 0 2500 2500" version="1.1">
	<path d="M 1160.500 0.625 C 1135.374 2.819, 1117.531 5.823, 1098.648 11.038 C 1018.612 33.140, 951.521 85.887, 910.535 158.934 C 901.401 175.214, 896.358 187.322, 865.522 267.019 L 836.689 341.539 751.929 389.647 L 667.169 437.756 589.512 425.912 C 546.800 419.398, 507.050 413.501, 501.177 412.806 C 487.169 411.150, 447.394 411.164, 434 412.830 C 397.764 417.338, 365.572 426.841, 333.500 442.497 C 295.055 461.265, 262.015 486.545, 235.476 517.500 C 226.765 527.661, 213.939 545.038, 207.064 555.992 C 202.224 563.704, 141.647 669.237, 128.994 692 C 111.400 723.652, 98.520 763.397, 93.346 802 C 91.121 818.602, 90.840 856.999, 92.822 873.500 C 99.678 930.563, 119.804 981.356, 153 1025.372 C 157.675 1031.571, 182.987 1063.257, 209.250 1095.787 L 257 1154.931 257 1250.518 L 257 1346.104 207.951 1408.573 C 180.974 1442.930, 155.727 1475.419, 151.847 1480.770 C 126.676 1515.483, 108.724 1557.487, 100.030 1602.015 C 93.555 1635.177, 92.989 1677.565, 98.588 1709.904 C 103.935 1740.792, 113.982 1772.072, 126.658 1797.298 C 132.241 1808.411, 205.720 1936.627, 212.433 1946.972 C 225.331 1966.847, 234.682 1978.558, 251.459 1995.848 C 300.733 2046.626, 364.219 2077.776, 437.500 2087.129 C 450.295 2088.762, 490.159 2088.769, 504.500 2087.140 C 510.550 2086.453, 549.251 2080.745, 590.503 2074.455 C 631.754 2068.165, 666.655 2062.923, 668.060 2062.807 C 669.841 2062.660, 695.719 2077.036, 753.571 2110.313 L 836.528 2158.031 864.459 2230.265 C 902.745 2329.279, 904.858 2333.969, 924.488 2363.500 C 969.712 2431.531, 1041.716 2479.127, 1122.500 2494.387 C 1149.375 2499.464, 1150.287 2499.500, 1251 2499.500 C 1350.165 2499.500, 1355.201 2499.318, 1379 2494.863 C 1472.098 2477.440, 1550.738 2419.568, 1596.235 2335 C 1603.205 2322.044, 1607.550 2311.385, 1638.013 2232.500 C 1653.517 2192.350, 1666.986 2158.810, 1667.944 2157.967 C 1668.902 2157.124, 1706.544 2135.247, 1751.593 2109.351 L 1833.500 2062.269 1910.500 2074.072 C 1952.850 2080.563, 1992.675 2086.465, 1999 2087.187 C 2013.696 2088.865, 2052.365 2088.851, 2066 2087.163 C 2102.196 2082.683, 2134.631 2073.105, 2166.500 2057.487 C 2193.727 2044.143, 2214.349 2030.324, 2237.500 2009.908 C 2257.751 1992.050, 2273.881 1973.102, 2290.319 1947.863 C 2296.466 1938.423, 2352.462 1841.361, 2371.006 1808 C 2388.540 1776.457, 2401.278 1737.171, 2406.672 1698 C 2408.814 1682.449, 2409.114 1642.487, 2407.206 1627 C 2400.003 1568.533, 2380.394 1518.907, 2347 1474.628 C 2342.325 1468.429, 2317.012 1436.743, 2290.750 1404.213 L 2243 1345.069 2243 1249.472 L 2243 1153.875 2291.834 1091.688 C 2346.626 1021.912, 2351.079 1015.998, 2360.504 1000.500 C 2384.098 961.700, 2398.335 919.759, 2403.615 873.500 C 2405.486 857.107, 2405.694 825.535, 2404.035 809.596 C 2400.220 772.930, 2389.006 733.874, 2373.342 702.702 C 2367.659 691.391, 2294.748 564.206, 2287.710 553.325 C 2274.587 533.037, 2265.500 521.629, 2248.541 504.152 C 2199.262 453.369, 2136.045 422.347, 2062.500 412.857 C 2049.779 411.216, 2010.023 411.220, 1995.500 412.863 C 1989.450 413.548, 1950.749 419.255, 1909.497 425.545 C 1868.246 431.835, 1833.345 437.077, 1831.940 437.193 C 1830.159 437.340, 1804.282 422.964, 1746.435 389.690 L 1663.483 341.975 1635.538 269.738 C 1597.106 170.396, 1595.035 165.800, 1575.492 136.500 C 1530.590 69.178, 1458.661 21.192, 1379.766 5.925 C 1352.692 0.686, 1353.620 0.726, 1256 0.494 C 1205.675 0.374, 1162.700 0.433, 1160.500 0.625 M 1170.624 275.637 C 1161.640 278.395, 1154.295 284.540, 1150.131 292.778 C 1149.096 294.825, 1132.406 337.450, 1113.042 387.500 C 1093.678 437.550, 1075.807 483.333, 1073.328 489.240 C 1062.431 515.206, 1044.224 537.006, 1021.053 551.829 C 1010.790 558.394, 758.509 701.303, 751.050 704.776 C 730.354 714.414, 706.287 718.750, 683.500 716.948 C 678 716.513, 627.375 709.113, 571 700.505 C 496.500 689.128, 467.271 685.022, 464 685.474 C 457.607 686.357, 447.804 691.368, 443.800 695.799 C 440.442 699.516, 371.809 818.579, 368.099 827.124 C 367.054 829.531, 365.884 833.444, 365.500 835.821 C 364.533 841.796, 366.667 852.086, 369.938 857.225 C 371.435 859.576, 402.063 897.950, 438 942.500 C 473.937 987.050, 505.684 1027.100, 508.548 1031.500 C 518.621 1046.971, 525.221 1063.412, 528.621 1081.500 C 530.410 1091.022, 530.500 1099.125, 530.500 1251 L 530.500 1410.500 528.244 1420.688 C 524.077 1439.503, 518.274 1453.581, 508.534 1468.500 C 505.662 1472.900, 473.983 1513.850, 438.137 1559.500 C 388.729 1622.422, 372.484 1643.779, 370.981 1647.788 C 368.232 1655.125, 368.366 1664.843, 371.316 1672.013 C 372.563 1675.045, 389.399 1705.195, 408.729 1739.013 C 433.220 1781.861, 445.153 1801.789, 448.095 1804.752 C 453.117 1809.811, 461.302 1813.910, 467.800 1814.619 C 471.033 1814.972, 504.345 1810.252, 574.500 1799.501 C 630.600 1790.904, 681 1783.508, 686.500 1783.066 C 710.676 1781.121, 736.394 1786.135, 758 1797.004 C 768.121 1802.096, 1014.786 1944.046, 1023 1949.506 C 1043.164 1962.910, 1060.819 1983.340, 1070.680 2004.683 C 1072.627 2008.897, 1090.618 2054.680, 1110.660 2106.422 C 1130.702 2158.165, 1148.227 2202.975, 1149.604 2206 C 1153.845 2215.316, 1161.120 2221.526, 1171.239 2224.467 C 1176.078 2225.874, 1185.734 2226.027, 1254.108 2225.780 L 1331.500 2225.500 1337.165 2222.718 C 1343.560 2219.577, 1350.284 2213.335, 1352.963 2208.051 C 1353.954 2206.098, 1371.751 2160.625, 1392.514 2107 C 1413.276 2053.375, 1431.828 2006.350, 1433.740 2002.500 C 1444.092 1981.659, 1461.202 1962.263, 1480.466 1949.529 C 1491.953 1941.936, 1740.007 1799.361, 1748.950 1795.212 C 1769.721 1785.573, 1793.732 1781.251, 1816.500 1783.052 C 1822 1783.487, 1872.625 1790.887, 1929 1799.495 C 2003.500 1810.872, 2032.729 1814.978, 2036 1814.526 C 2042.393 1813.643, 2052.196 1808.632, 2056.200 1804.201 C 2059.558 1800.484, 2128.191 1681.421, 2131.901 1672.876 C 2132.946 1670.469, 2134.116 1666.556, 2134.500 1664.179 C 2135.467 1658.204, 2133.333 1647.914, 2130.062 1642.775 C 2128.565 1640.424, 2097.937 1602.050, 2062 1557.500 C 2026.063 1512.950, 1994.316 1472.900, 1991.452 1468.500 C 1981.379 1453.029, 1974.779 1436.588, 1971.379 1418.500 C 1969.590 1408.978, 1969.500 1400.875, 1969.500 1249 L 1969.500 1089.500 1971.756 1079.312 C 1975.922 1060.503, 1981.722 1046.431, 1991.462 1031.500 C 1994.332 1027.100, 2026.010 986.150, 2061.857 940.500 C 2111.237 877.616, 2127.514 856.218, 2129.017 852.212 C 2131.768 844.876, 2131.635 835.159, 2128.684 827.987 C 2127.437 824.955, 2110.601 794.805, 2091.271 760.987 C 2066.780 718.139, 2054.847 698.211, 2051.905 695.248 C 2046.883 690.189, 2038.698 686.090, 2032.200 685.381 C 2028.967 685.028, 1995.655 689.748, 1925.500 700.499 C 1869.400 709.096, 1819 716.492, 1813.500 716.934 C 1789.324 718.879, 1763.606 713.865, 1742 702.996 C 1731.879 697.904, 1485.214 555.954, 1477 550.494 C 1456.816 537.077, 1439.182 516.662, 1429.297 495.266 C 1427.337 491.024, 1409.344 445.242, 1389.313 393.527 C 1369.282 341.812, 1351.859 297.229, 1350.595 294.454 C 1346.241 284.891, 1338.983 278.557, 1328.972 275.584 C 1321.185 273.272, 1178.170 273.319, 1170.624 275.637 M 1228.871 771.064 C 1120.770 775.444, 1016.417 817.249, 934.503 888.993 C 835.097 976.056, 776.029 1099.274, 771.153 1229.750 C 768.271 1306.893, 781.947 1378.550, 812.512 1446.452 C 880.703 1597.940, 1023.985 1704.529, 1187.500 1725.408 C 1227.625 1730.532, 1272.375 1730.532, 1312.500 1725.408 C 1405.100 1713.584, 1495.419 1672.678, 1565.984 1610.603 C 1653.718 1533.425, 1710.836 1426.620, 1725.408 1312.500 C 1730.532 1272.375, 1730.532 1227.625, 1725.408 1187.500 C 1704.534 1024.019, 1597.835 880.575, 1446.500 812.540 C 1393.294 788.621, 1331.128 773.542, 1277.375 771.519 C 1269.194 771.211, 1259.125 770.813, 1255 770.634 C 1250.875 770.455, 1239.117 770.649, 1228.871 771.064 M 1219.500 1047.023 C 1175.132 1053.847, 1136.645 1073.329, 1104.987 1104.987 C 1065.751 1144.222, 1045.009 1194.371, 1045.009 1250 C 1045.009 1305.629, 1065.751 1355.778, 1104.987 1395.013 C 1144.152 1434.179, 1194.485 1455, 1250 1455 C 1305.490 1455, 1355.865 1434.162, 1395.013 1395.013 C 1434.162 1355.865, 1455 1305.490, 1455 1250 C 1455 1194.510, 1434.162 1144.135, 1395.013 1104.987 C 1363.020 1072.993, 1324.516 1053.646, 1279.500 1046.944 C 1262.377 1044.395, 1236.362 1044.430, 1219.500 1047.023" stroke="none" fill="#737373" fill-rule="evenodd"></path>
</svg>