<svg width="18" height="18" viewBox="0 0 18 18" fill="none" xmlns="http://www.w3.org/2000/svg">
<path d="M9 16.9998C7.19722 15.015 4.75238 13.7294 2.0954 13.369C1.79298 13.3356 1.51367 13.1913 1.31139 12.964C1.1091 12.7367 0.998177 12.4425 1.00002 12.1383V2.23062C1.00001 2.05284 1.03851 1.87718 1.11287 1.71571C1.18724 1.55423 1.2957 1.41079 1.43079 1.29524C1.56351 1.18178 1.71884 1.09787 1.88648 1.04906C2.05412 1.00026 2.23022 0.987677 2.4031 1.01216C4.94376 1.43383 7.26796 2.7 9 4.606V16.9998Z" stroke="#737373" stroke-width="2" stroke-linecap="round" stroke-linejoin="round"/>
<path d="M9 16.9998C10.8028 15.015 13.2476 13.7294 15.9046 13.369C16.207 13.3356 16.4863 13.1913 16.6886 12.964C16.8909 12.7367 17.0018 12.4425 17 12.1383V2.23062C17 2.05284 16.9615 1.87718 16.8871 1.71571C16.8128 1.55423 16.7043 1.41079 16.5692 1.29524C16.4365 1.18178 16.2812 1.09787 16.1135 1.04906C15.9459 1.00026 15.7698 0.987677 15.5969 1.01216C13.0562 1.43383 10.732 2.7 9 4.606V16.9998Z" stroke="#737373" stroke-width="2" stroke-linecap="round" stroke-linejoin="round"/>
</svg>
