<svg viewBox="0 0 8 11" fill="none" xmlns="http://www.w3.org/2000/svg">
<path d="M2.28063 7.99222L1.8726 9.18036C1.7706 9.48033 1.5933 9.73108 1.34072 9.93262C1.08813 10.1295 0.803975 10.2279 0.488244 10.2279C0.410526 10.2279 0.344951 10.2068 0.291519 10.1646C0.242945 10.1271 0.218658 10.0709 0.218658 9.99589C0.218658 9.96777 0.228373 9.92559 0.247803 9.86935L0.947269 7.93597C0.981271 7.83755 1.0177 7.76255 1.05656 7.711C1.09542 7.65475 1.14885 7.61491 1.21685 7.59148C1.28972 7.56804 1.35286 7.55398 1.40629 7.5493C1.46458 7.54461 1.56173 7.54227 1.69774 7.54227C1.80946 7.54227 1.89203 7.54461 1.94547 7.5493C1.9989 7.5493 2.05961 7.55633 2.12762 7.57039C2.20048 7.58445 2.25148 7.61023 2.28063 7.64772C2.30977 7.68053 2.32434 7.7274 2.32434 7.78833C2.32434 7.83051 2.30977 7.89848 2.28063 7.99222ZM4.67775 0.378237L7.78163 9.08897C7.81564 9.23895 7.83264 9.32331 7.83264 9.34206C7.83264 9.5436 7.7112 9.7428 7.46833 9.93965C7.22546 10.1318 7.01174 10.2279 6.82715 10.2279C6.66686 10.2279 6.543 10.1084 6.45556 9.86935L3.42454 1.33438C3.37597 1.12346 3.35168 1.01098 3.35168 0.996917C3.35168 0.79069 3.48526 0.586807 3.75242 0.385268C4.02443 0.179041 4.2333 0.0759277 4.37902 0.0759277C4.4616 0.0759277 4.51989 0.0970191 4.55389 0.139202C4.59275 0.176698 4.63404 0.256376 4.67775 0.378237ZM4.5466 7.12044H1.58845C1.40386 7.12044 1.31157 7.0431 1.31157 6.88843C1.31157 6.84625 1.32129 6.79938 1.34072 6.74783L2.83437 2.43816C2.90237 2.25537 2.98009 2.16397 3.06753 2.16397C3.14524 2.16397 3.21325 2.21084 3.27154 2.30458C3.32982 2.39363 3.39297 2.53893 3.46097 2.74047C3.58727 3.12011 3.65041 3.40367 3.65041 3.59115C3.65041 3.72239 3.62613 3.86065 3.57755 4.00595L3.00924 5.6792C2.99952 5.70263 2.99466 5.73544 2.99466 5.77762C2.99466 5.90417 3.06995 5.96745 3.22053 5.96745H3.97829C4.22602 5.96745 4.3936 5.97916 4.48103 6.0026C4.56846 6.02603 4.63889 6.09165 4.69233 6.19945C4.7409 6.29319 4.77976 6.41505 4.8089 6.56503C4.84291 6.71033 4.85991 6.81813 4.85991 6.88843C4.85991 7.0431 4.75547 7.12044 4.5466 7.12044Z" fill="white"/>
</svg>
