<svg width="17" height="17" viewBox="0 0 17 17" fill="none" xmlns="http://www.w3.org/2000/svg">
<path d="M11.2857 12.4286V14.7143C11.2857 15.0174 11.1653 15.3081 10.951 15.5224C10.7367 15.7367 10.446 15.8571 10.1429 15.8571H2.14286C1.83975 15.8571 1.54906 15.7367 1.33474 15.5224C1.12041 15.3081 1 15.0174 1 14.7143V2.14286C1 1.83975 1.12041 1.54906 1.33474 1.33474C1.54906 1.12041 1.83975 1 2.14286 1H10.1429C10.446 1 10.7367 1.12041 10.951 1.33474C11.1653 1.54906 11.2857 1.83975 11.2857 2.14286V4.42857" stroke="var(--normal-text-color)" stroke-width="1.5" stroke-linecap="round" stroke-linejoin="round"/>
<path d="M7.85693 8.42859H15.8569" stroke="var(--normal-text-color)" stroke-width="1.5" stroke-linecap="round" stroke-linejoin="round"/>
<path d="M13.5713 6.14282L15.857 8.42854L13.5713 10.7143" stroke="var(--normal-text-color)" stroke-width="1.5" stroke-linecap="round" stroke-linejoin="round"/>
</svg>
