<svg width="16" height="18" viewBox="0 0 16 18" fill="none" xmlns="http://www.w3.org/2000/svg">
<path d="M1 15.5697C1.00443 15.8265 1.07915 16.0772 1.21606 16.2945C1.35296 16.5118 1.54681 16.6874 1.77653 16.8023C2.00592 16.9319 2.26493 17 2.52841 17C2.79189 17 3.05089 16.9319 3.28028 16.8023L13.9422 10.2079C14.1741 10.0962 14.3699 9.92121 14.5069 9.70317C14.6438 9.48512 14.7165 9.23285 14.7165 8.97535C14.7165 8.71785 14.6438 8.46557 14.5069 8.24753C14.3699 8.02948 14.1741 7.85452 13.9422 7.74276L3.28028 1.19773C3.05089 1.06811 2.79189 1 2.52841 1C2.26493 1 2.00592 1.06811 1.77653 1.19773C1.54681 1.31259 1.35296 1.48822 1.21606 1.70553C1.07915 1.92284 1.00443 2.17351 1 2.43031V15.5697Z" stroke="var(--secondary-text-color)" stroke-width="2" stroke-linecap="round" stroke-linejoin="round"/>
</svg>
