<svg width="17" height="17" viewBox="0 0 17 17" fill="none" xmlns="http://www.w3.org/2000/svg">
<path d="M14.7143 1.15833H2.14286C1.83975 1.15833 1.54906 1.27873 1.33474 1.49306C1.12041 1.70739 1 1.99808 1 2.30118V12.0155C1 12.3186 1.12041 12.6093 1.33474 12.8236C1.54906 13.0379 1.83975 13.1583 2.14286 13.1583H4.42857V16.0155L7.99429 13.1583H14.7143C15.0174 13.1583 15.3081 13.0379 15.5224 12.8236C15.7367 12.6093 15.8571 12.3186 15.8571 12.0155V2.30118C15.8571 1.99808 15.7367 1.70739 15.5224 1.49306C15.3081 1.27873 15.0174 1.15833 14.7143 1.15833Z" stroke="#333333" stroke-width="1.5" stroke-linecap="round" stroke-linejoin="round"/>
<path d="M6.71428 5.72979C6.71428 5.39074 6.81482 5.0593 7.00319 4.77738C7.19156 4.49547 7.45929 4.27575 7.77254 4.146C8.08578 4.01625 8.43047 3.9823 8.76301 4.04844C9.09554 4.11459 9.401 4.27786 9.64075 4.51761C9.8805 4.75735 10.0438 5.06281 10.1099 5.39535C10.1761 5.72789 10.1421 6.07257 10.0124 6.38582C9.88261 6.69906 9.66288 6.9668 9.38097 7.15517C9.09906 7.34353 8.76762 7.44408 8.42856 7.44408V8.0155" stroke="#333333" stroke-width="1.5" stroke-linecap="round" stroke-linejoin="round"/>
<path d="M8.42857 9.72974C8.25904 9.72974 8.09332 9.78001 7.95237 9.87419C7.81141 9.96838 7.70155 10.1022 7.63667 10.2589C7.5718 10.4155 7.55482 10.5878 7.5879 10.7541C7.62097 10.9204 7.7026 11.0731 7.82248 11.193C7.94235 11.3128 8.09508 11.3945 8.26135 11.4276C8.42762 11.4606 8.59996 11.4437 8.75658 11.3788C8.91321 11.3139 9.04707 11.204 9.14126 11.0631C9.23544 10.9221 9.28571 10.7564 9.28571 10.5869C9.28275 10.3605 9.1915 10.1442 9.03139 9.98406C8.87128 9.82395 8.65498 9.7327 8.42857 9.72974Z" fill="black"/>
</svg>
