<svg width="18" height="20" viewBox="0 0 18 20" fill="none" xmlns="http://www.w3.org/2000/svg">
<path d="M6.62732 3.34587L7.20373 1.85792C7.30094 1.60599 7.47197 1.38929 7.69442 1.23621C7.91687 1.08313 8.18037 1.0008 8.4504 1H9.5496C9.81963 1.0008 10.0831 1.08313 10.3056 1.23621C10.528 1.38929 10.6991 1.60599 10.7963 1.85792L11.3727 3.34587L13.3298 4.47189L14.9116 4.2306C15.175 4.19485 15.443 4.2382 15.6817 4.35516C15.9204 4.47212 16.1189 4.65739 16.2521 4.88744L16.7883 5.82579C16.9257 6.0595 16.989 6.32939 16.9698 6.59982C16.9507 6.87025 16.85 7.12852 16.681 7.34055L15.7025 8.58721V10.8392L16.7079 12.0859C16.8768 12.2979 16.9775 12.5562 16.9967 12.8266C17.0158 13.0971 16.9525 13.367 16.8151 13.6007L16.2789 14.539C16.1458 14.7691 15.9472 14.9543 15.7085 15.0713C15.4699 15.1883 15.2018 15.2316 14.9384 15.1959L13.3566 14.9546L11.3995 16.0806L10.8231 17.5685C10.7259 17.8205 10.5548 18.0372 10.3324 18.1902C10.1099 18.3433 9.84644 18.4257 9.57641 18.4265H8.4504C8.18037 18.4257 7.91687 18.3433 7.69442 18.1902C7.47197 18.0372 7.30094 17.8205 7.20373 17.5685L6.62732 16.0806L4.6702 14.9546L3.08841 15.1959C2.82502 15.2316 2.55696 15.1883 2.31827 15.0713C2.07958 14.9543 1.88106 14.7691 1.74791 14.539L1.21171 13.6007C1.07432 13.367 1.01101 13.0971 1.03016 12.8266C1.0493 12.5562 1.15 12.2979 1.31895 12.0859L2.29752 10.8392V8.58721L1.29214 7.34055C1.12319 7.12852 1.02249 6.87025 1.00335 6.59982C0.984202 6.32939 1.04751 6.0595 1.1849 5.82579L1.7211 4.88744C1.85425 4.65739 2.05277 4.47212 2.29146 4.35516C2.53015 4.2382 2.79821 4.19485 3.0616 4.2306L4.64339 4.47189L6.62732 3.34587ZM6.31901 9.71323C6.31901 10.2435 6.47624 10.7618 6.77084 11.2027C7.06543 11.6436 7.48414 11.9872 7.97403 12.1901C8.46392 12.3931 9.00297 12.4462 9.52304 12.3427C10.0431 12.2393 10.5208 11.9839 10.8957 11.609C11.2707 11.234 11.526 10.7563 11.6295 10.2363C11.7329 9.7162 11.6798 9.17714 11.4769 8.68726C11.274 8.19737 10.9304 7.77866 10.4895 7.48406C10.0486 7.18947 9.53025 7.03223 9 7.03223C8.28896 7.03223 7.60704 7.3147 7.10425 7.81748C6.60147 8.32026 6.31901 9.00218 6.31901 9.71323Z" stroke="var(--normal-text-color)" stroke-width="1.5" stroke-linecap="round" stroke-linejoin="round"/>
</svg>
